<mxfile host="app.diagrams.net" agent="Mozilla/5.0 (Windows NT 10.0; Win64; x64) AppleWebKit/537.36 (KHTML, like Gecko) Chrome/128.0.0.0 Safari/537.36" version="24.7.14">
  <diagram name="Page-1" id="yepkRTIXtn5WM8JtZFfc">
    <mxGraphModel dx="4609" dy="2458" grid="1" gridSize="10" guides="1" tooltips="1" connect="1" arrows="1" fold="1" page="1" pageScale="1" pageWidth="850" pageHeight="1100" math="0" shadow="0">
      <root>
        <mxCell id="0" />
        <mxCell id="1" parent="0" />
        <mxCell id="XDAFJz9XsZWurZsPIK9s-1" value="" style="rounded=0;whiteSpace=wrap;html=1;fillColor=#1A1A1A;strokeColor=#666666;gradientColor=#5C5C5C;gradientDirection=south;glass=0;shadow=0;" vertex="1" parent="1">
          <mxGeometry x="280" y="350" width="2400" height="3600" as="geometry" />
        </mxCell>
        <mxCell id="XDAFJz9XsZWurZsPIK9s-9" value="&lt;span style=&quot;font-size: 100px;&quot;&gt;&lt;font color=&quot;#99ff66&quot; face=&quot;Courier New&quot;&gt;CHEATSHEET@LINUX&lt;/font&gt;&lt;font color=&quot;#ffffff&quot; face=&quot;Courier New&quot;&gt;:&lt;/font&gt;&lt;font color=&quot;#ffffff&quot; face=&quot;Courier New&quot;&gt;~$&lt;/font&gt;&lt;/span&gt;" style="rounded=0;whiteSpace=wrap;html=1;fillColor=#1A1A1A;fontColor=#99CCFF;strokeColor=#FFFFFF;strokeWidth=10;" vertex="1" parent="1">
          <mxGeometry x="895.63" y="480" width="1394.37" height="170" as="geometry" />
        </mxCell>
        <mxCell id="XDAFJz9XsZWurZsPIK9s-11" value="&lt;font face=&quot;Lucida Console&quot; style=&quot;font-size: 42px;&quot;&gt;&amp;nbsp;FINDING FILES&lt;/font&gt;" style="rounded=0;whiteSpace=wrap;html=1;align=left;" vertex="1" parent="1">
          <mxGeometry x="330" y="760" width="590" height="80" as="geometry" />
        </mxCell>
        <mxCell id="XDAFJz9XsZWurZsPIK9s-14" value="&lt;font style=&quot;font-size: 38px;&quot; face=&quot;Lucida Console&quot; color=&quot;#ffffff&quot;&gt;Find Files Containing String&lt;/font&gt;&lt;blockquote style=&quot;line-height: 120%; font-size: 38px;&quot;&gt;&lt;font style=&quot;font-size: 38px;&quot; face=&quot;Lucida Console&quot;&gt;&lt;font style=&quot;font-size: 38px;&quot; color=&quot;#99ff66&quot;&gt;grep -lir &#39;search-word&#39; &lt;/font&gt;&lt;font style=&quot;font-size: 38px;&quot; color=&quot;#ffffff&quot;&gt;#return only file&lt;/font&gt;&lt;/font&gt;&lt;/blockquote&gt;&lt;blockquote style=&quot;line-height: 120%; font-size: 38px;&quot;&gt;&lt;font style=&quot;font-size: 38px;&quot; face=&quot;Lucida Console&quot;&gt;&lt;font style=&quot;font-size: 38px;&quot; color=&quot;#99ff66&quot;&gt;grep -r &#39;search-word&#39; &lt;/font&gt;&lt;font style=&quot;font-size: 38px;&quot; color=&quot;#ffffff&quot;&gt;#return filename + line&lt;/font&gt;&lt;/font&gt;&lt;/blockquote&gt;&lt;blockquote style=&quot;line-height: 120%; font-size: 38px;&quot;&gt;&lt;font style=&quot;font-size: 38px;&quot; face=&quot;Lucida Console&quot;&gt;&lt;font style=&quot;font-size: 38px;&quot; color=&quot;#ffffff&quot;&gt;&lt;br&gt;&lt;/font&gt;&lt;/font&gt;&lt;/blockquote&gt;&lt;div style=&quot;line-height: 120%; font-size: 38px;&quot;&gt;&lt;font style=&quot;font-size: 38px;&quot; face=&quot;Lucida Console&quot; color=&quot;#ffffff&quot;&gt;Find Files by Filename&lt;/font&gt;&lt;blockquote style=&quot;line-height: 120%;&quot;&gt;&lt;font style=&quot;font-size: 38px;&quot; color=&quot;#99ff66&quot; face=&quot;Lucida Console&quot;&gt;find / -name &quot;Foo.txt&quot; 2&amp;gt;/dev/null &lt;/font&gt;&lt;font color=&quot;#ffffff&quot; style=&quot;font-size: 38px;&quot; face=&quot;Lucida Console&quot;&gt;#exact&amp;nbsp;&lt;/font&gt;&lt;/blockquote&gt;&lt;blockquote style=&quot;line-height: 120%;&quot;&gt;&lt;font style=&quot;font-size: 38px;&quot; color=&quot;#99ff66&quot; face=&quot;Lucida Console&quot;&gt;find / -iname &quot;*foo*txt&quot;&amp;nbsp;&lt;/font&gt;&lt;font color=&quot;#ffffff&quot; style=&quot;font-size: 38px;&quot; face=&quot;Lucida Console&quot;&gt;#case insensitive&lt;/font&gt;&lt;/blockquote&gt;&lt;blockquote style=&quot;line-height: 120%;&quot;&gt;&lt;br&gt;&lt;/blockquote&gt;&lt;/div&gt;&lt;div style=&quot;line-height: 120%; font-size: 38px;&quot;&gt;&lt;font style=&quot;font-size: 38px;&quot; color=&quot;#99ff66&quot; face=&quot;Lucida Console&quot;&gt;&lt;br&gt;&lt;/font&gt;&lt;/div&gt;&lt;div style=&quot;line-height: 120%; font-size: 38px;&quot;&gt;&lt;font style=&quot;font-size: 38px;&quot; color=&quot;#99ff66&quot; face=&quot;Lucida Console&quot;&gt;&lt;span style=&quot;font-size: 42px;&quot;&gt;&lt;br&gt;&lt;/span&gt;&lt;/font&gt;&lt;/div&gt;" style="text;html=1;align=left;verticalAlign=middle;whiteSpace=wrap;rounded=0;" vertex="1" parent="1">
          <mxGeometry x="330" y="890" width="1180" height="800" as="geometry" />
        </mxCell>
        <mxCell id="XDAFJz9XsZWurZsPIK9s-43" value="&lt;font face=&quot;Lucida Console&quot; style=&quot;font-size: 42px;&quot;&gt;&amp;nbsp;DATA PROCESSING&lt;/font&gt;" style="rounded=0;whiteSpace=wrap;html=1;align=left;" vertex="1" parent="1">
          <mxGeometry x="1480" y="760" width="590" height="80" as="geometry" />
        </mxCell>
        <mxCell id="XDAFJz9XsZWurZsPIK9s-44" value="&lt;font style=&quot;font-size: 38px;&quot; face=&quot;Lucida Console&quot; color=&quot;#ffffff&quot;&gt;&lt;b&gt;awk&lt;/b&gt;&lt;/font&gt;&lt;blockquote style=&quot;line-height: 120%; font-size: 38px;&quot;&gt;&lt;font style=&quot;font-size: 38px;&quot; face=&quot;Lucida Console&quot;&gt;&lt;font style=&quot;font-size: 38px;&quot; color=&quot;#99ff66&quot;&gt;awk &#39;{print $3 &quot;\t&quot; $4}&#39; file.txt&amp;nbsp;&lt;/font&gt;&lt;font style=&quot;font-size: 38px;&quot; color=&quot;#ffffff&quot;&gt;#returns columns 3 and 4 separated by a tab&lt;/font&gt;&lt;/font&gt;&lt;/blockquote&gt;&lt;blockquote style=&quot;line-height: 120%; font-size: 38px;&quot;&gt;&lt;font style=&quot;font-size: 38px;&quot; face=&quot;Lucida Console&quot;&gt;&lt;font style=&quot;font-size: 38px;&quot; color=&quot;#99ff66&quot;&gt;awk -F &#39;,&#39; &#39;{print $2}&#39;&amp;nbsp;&lt;/font&gt;&lt;font style=&quot;font-size: 38px;&quot; color=&quot;#ffffff&quot;&gt;#print column 2 using comma as field separator&lt;/font&gt;&lt;/font&gt;&lt;/blockquote&gt;&lt;blockquote style=&quot;line-height: 120%; font-size: 38px;&quot;&gt;&lt;font style=&quot;font-family: &amp;quot;Lucida Console&amp;quot;;&quot; color=&quot;#99ff66&quot;&gt;awk &#39;/Up/ {print $2}&#39;&amp;nbsp;&lt;/font&gt;&lt;font style=&quot;font-family: &amp;quot;Lucida Console&amp;quot;;&quot; color=&quot;#ffffff&quot;&gt;#print column 2 of all lines containing &#39;Up&#39;&lt;/font&gt;&lt;font style=&quot;font-size: 38px;&quot; face=&quot;Lucida Console&quot;&gt;&lt;font style=&quot;font-size: 38px;&quot; color=&quot;#ffffff&quot;&gt;&lt;br&gt;&lt;/font&gt;&lt;/font&gt;&lt;/blockquote&gt;&lt;font style=&quot;font-size: 38px;&quot; face=&quot;Lucida Console&quot; color=&quot;#ffffff&quot;&gt;&lt;b&gt;sed&lt;/b&gt;&lt;/font&gt;&lt;blockquote style=&quot;font-size: 38px; line-height: 45.6px;&quot;&gt;&lt;font color=&quot;#99ff66&quot; face=&quot;Lucida Console&quot;&gt;sed &#39;s/unix/linux/2&#39; file.txt&amp;nbsp;&lt;/font&gt;&lt;font color=&quot;#ffffff&quot; face=&quot;Lucida Console&quot;&gt;#replace unix with linux on the second occurrence per line&amp;nbsp;&lt;/font&gt;&lt;/blockquote&gt;&lt;blockquote style=&quot;font-size: 38px; line-height: 45.6px;&quot;&gt;&lt;font color=&quot;#99ff66&quot; face=&quot;Lucida Console&quot;&gt;sed &#39;s/unix/linux/g&#39; file.txt&amp;nbsp;&lt;/font&gt;&lt;font color=&quot;#ffffff&quot; face=&quot;Lucida Console&quot;&gt;#replace all instances of a word&lt;/font&gt;&lt;/blockquote&gt;&lt;div style=&quot;line-height: 120%; font-size: 38px;&quot;&gt;&lt;font face=&quot;Lucida Console&quot; color=&quot;#ffffff&quot;&gt;&lt;b&gt;cut&lt;/b&gt;&lt;/font&gt;&lt;br&gt;&lt;blockquote style=&quot;line-height: 120%;&quot;&gt;&lt;font style=&quot;font-size: 38px;&quot; color=&quot;#99ff66&quot; face=&quot;Lucida Console&quot;&gt;cut -c2- foo.txt&amp;nbsp;&lt;/font&gt;&lt;font color=&quot;#ffffff&quot; style=&quot;font-size: 38px;&quot; face=&quot;Lucida Console&quot;&gt;#return characters 2 -&amp;gt; end&lt;/font&gt;&lt;/blockquote&gt;&lt;blockquote style=&quot;line-height: 120%;&quot;&gt;&lt;font style=&quot;font-size: 38px;&quot; color=&quot;#99ff66&quot; face=&quot;Lucida Console&quot;&gt;cut -c2-4&amp;nbsp;&lt;/font&gt;&lt;font color=&quot;#ffffff&quot; style=&quot;font-size: 38px;&quot; face=&quot;Lucida Console&quot;&gt;#return characters 2, 3, 4&lt;/font&gt;&lt;/blockquote&gt;&lt;blockquote style=&quot;line-height: 120%;&quot;&gt;&lt;font color=&quot;#99ff66&quot; face=&quot;Lucida Console&quot;&gt;cut -d &quot;,&quot; -f 2-3&amp;nbsp;&lt;/font&gt;&lt;font color=&quot;#ffffff&quot; face=&quot;Lucida Console&quot;&gt;#return column 2 and 3 using comma as field separator&lt;/font&gt;&lt;font color=&quot;#ffffff&quot; style=&quot;font-size: 38px;&quot; face=&quot;Lucida Console&quot;&gt;&lt;br&gt;&lt;/font&gt;&lt;/blockquote&gt;&lt;blockquote style=&quot;line-height: 120%;&quot;&gt;&lt;font color=&quot;#ffffff&quot; style=&quot;font-size: 38px;&quot; face=&quot;Lucida Console&quot;&gt;&lt;br&gt;&lt;/font&gt;&lt;/blockquote&gt;&lt;blockquote style=&quot;line-height: 120%;&quot;&gt;&lt;font color=&quot;#ffffff&quot; style=&quot;font-size: 38px;&quot; face=&quot;Lucida Console&quot;&gt;&lt;br&gt;&lt;/font&gt;&lt;/blockquote&gt;&lt;blockquote style=&quot;line-height: 120%;&quot;&gt;&lt;br&gt;&lt;/blockquote&gt;&lt;/div&gt;&lt;div style=&quot;line-height: 120%; font-size: 38px;&quot;&gt;&lt;font style=&quot;font-size: 38px;&quot; color=&quot;#99ff66&quot; face=&quot;Lucida Console&quot;&gt;&lt;br&gt;&lt;/font&gt;&lt;/div&gt;&lt;div style=&quot;line-height: 120%; font-size: 38px;&quot;&gt;&lt;font style=&quot;font-size: 38px;&quot; color=&quot;#99ff66&quot; face=&quot;Lucida Console&quot;&gt;&lt;span style=&quot;font-size: 42px;&quot;&gt;&lt;br&gt;&lt;/span&gt;&lt;/font&gt;&lt;/div&gt;" style="text;html=1;align=left;verticalAlign=middle;whiteSpace=wrap;rounded=0;" vertex="1" parent="1">
          <mxGeometry x="1490" y="1280" width="1180" height="800" as="geometry" />
        </mxCell>
        <mxCell id="XDAFJz9XsZWurZsPIK9s-46" value="&lt;font face=&quot;Lucida Console&quot; style=&quot;font-size: 42px;&quot;&gt;&amp;nbsp;GREP MAGIC&lt;/font&gt;" style="rounded=0;whiteSpace=wrap;html=1;align=left;" vertex="1" parent="1">
          <mxGeometry x="330" y="1610" width="590" height="80" as="geometry" />
        </mxCell>
        <mxCell id="XDAFJz9XsZWurZsPIK9s-47" value="&lt;font style=&quot;font-size: 38px;&quot; face=&quot;Lucida Console&quot; color=&quot;#ffffff&quot;&gt;Useful grep flags&lt;/font&gt;&lt;blockquote style=&quot;font-size: 38px; line-height: 45.6px;&quot;&gt;&lt;font color=&quot;#99ff66&quot; face=&quot;Lucida Console&quot;&gt;grep -A 2 asdf &quot;Foo.txt&quot;&amp;nbsp;&lt;/font&gt;&lt;font color=&quot;#ffffff&quot; face=&quot;Lucida Console&quot;&gt;#return two lines before match&amp;nbsp;&lt;/font&gt;&lt;font color=&quot;#99ff66&quot; face=&quot;Lucida Console&quot;&gt;&lt;br&gt;&lt;/font&gt;&lt;/blockquote&gt;&lt;blockquote style=&quot;font-size: 38px; line-height: 45.6px;&quot;&gt;&lt;font color=&quot;#99ff66&quot; face=&quot;Lucida Console&quot;&gt;grep -B 2 asdf &quot;Foo.txt&quot;&amp;nbsp;&lt;/font&gt;&lt;font color=&quot;#ffffff&quot; face=&quot;Lucida Console&quot;&gt;#return two lines after match&amp;nbsp;&lt;/font&gt;&lt;font color=&quot;#99ff66&quot; face=&quot;Lucida Console&quot;&gt;&lt;br&gt;&lt;/font&gt;&lt;/blockquote&gt;&lt;blockquote style=&quot;font-size: 38px; line-height: 45.6px;&quot;&gt;&lt;font color=&quot;#99ff66&quot; face=&quot;Lucida Console&quot;&gt;grep -C 2 asdf &quot;Foo.txt&quot;&amp;nbsp;&lt;/font&gt;&lt;font color=&quot;#ffffff&quot; face=&quot;Lucida Console&quot;&gt;#return two lines surrounding match&amp;nbsp;&lt;/font&gt;&lt;/blockquote&gt;&lt;blockquote style=&quot;font-size: 38px; line-height: 45.6px;&quot;&gt;&lt;font color=&quot;#99ff66&quot; face=&quot;Lucida Console&quot;&gt;grep -w of &quot;Foo.txt&quot;&amp;nbsp;&lt;/font&gt;&lt;font color=&quot;#ffffff&quot; face=&quot;Lucida Console&quot;&gt;#search for full word&lt;/font&gt;&lt;br&gt;&lt;/blockquote&gt;&lt;blockquote style=&quot;font-size: 38px; line-height: 45.6px;&quot;&gt;&lt;font color=&quot;#99ff66&quot; face=&quot;Lucida Console&quot;&gt;grep -n asdf &quot;Foo.txt&quot;&amp;nbsp;&lt;/font&gt;&lt;font color=&quot;#ffffff&quot; face=&quot;Lucida Console&quot;&gt;#return line number&lt;/font&gt;&lt;font color=&quot;#ffffff&quot; face=&quot;Lucida Console&quot;&gt;&lt;br&gt;&lt;/font&gt;&lt;/blockquote&gt;&lt;blockquote style=&quot;font-size: 38px; line-height: 45.6px;&quot;&gt;&lt;font color=&quot;#99ff66&quot; face=&quot;Lucida Console&quot;&gt;grep -i asdf &quot;Foo.txt&quot;&amp;nbsp;&lt;/font&gt;&lt;font color=&quot;#ffffff&quot; face=&quot;Lucida Console&quot;&gt;#case insensitive&lt;/font&gt;&lt;font color=&quot;#ffffff&quot; face=&quot;Lucida Console&quot;&gt;&lt;br&gt;&lt;/font&gt;&lt;/blockquote&gt;&lt;blockquote style=&quot;font-size: 38px; line-height: 45.6px;&quot;&gt;&lt;font color=&quot;#99ff66&quot; face=&quot;Lucida Console&quot;&gt;grep -o asdf &quot;Foo.txt&quot;&amp;nbsp;&lt;/font&gt;&lt;font color=&quot;#ffffff&quot; face=&quot;Lucida Console&quot;&gt;#only return match&lt;/font&gt;&lt;font color=&quot;#ffffff&quot; face=&quot;Lucida Console&quot;&gt;&lt;br&gt;&lt;/font&gt;&lt;/blockquote&gt;&lt;blockquote style=&quot;font-size: 38px; line-height: 45.6px;&quot;&gt;&lt;font color=&quot;#99ff66&quot; face=&quot;Lucida Console&quot;&gt;grep -E &#39;asdf|qwert&#39; &quot;Foo.txt&quot;&amp;nbsp;&lt;/font&gt;&lt;font color=&quot;#ffffff&quot; face=&quot;Lucida Console&quot;&gt;#extended regex&lt;/font&gt;&lt;font color=&quot;#ffffff&quot; face=&quot;Lucida Console&quot;&gt;&lt;br&gt;&lt;/font&gt;&lt;/blockquote&gt;" style="text;html=1;align=left;verticalAlign=middle;whiteSpace=wrap;rounded=0;" vertex="1" parent="1">
          <mxGeometry x="330" y="1720" width="1170" height="990" as="geometry" />
        </mxCell>
        <mxCell id="XDAFJz9XsZWurZsPIK9s-49" value="&lt;span style=&quot;color: rgb(255, 255, 255); font-family: &amp;quot;Lucida Console&amp;quot;; font-size: 38px;&quot;&gt;Storage/Memory&lt;/span&gt;&lt;div&gt;&lt;blockquote style=&quot;font-size: 38px; line-height: 45.6px;&quot;&gt;&lt;font color=&quot;#99ff66&quot; face=&quot;Lucida Console&quot;&gt;df -h&amp;nbsp;&lt;/font&gt;&lt;font color=&quot;#ffffff&quot; face=&quot;Lucida Console&quot;&gt;#human readable filesystem storage&amp;nbsp;&lt;/font&gt;&lt;font color=&quot;#99ff66&quot; face=&quot;Lucida Console&quot;&gt;&lt;br&gt;&lt;/font&gt;&lt;/blockquote&gt;&lt;blockquote style=&quot;font-size: 38px; line-height: 45.6px;&quot;&gt;&lt;font color=&quot;#99ff66&quot; face=&quot;Lucida Console&quot;&gt;du -sh foo.txt&amp;nbsp;&lt;/font&gt;&lt;font color=&quot;#ffffff&quot; face=&quot;Lucida Console&quot;&gt;#human readable size of file or directory&lt;/font&gt;&lt;font color=&quot;#99ff66&quot; face=&quot;Lucida Console&quot;&gt;&lt;br&gt;&lt;/font&gt;&lt;/blockquote&gt;&lt;blockquote style=&quot;font-size: 38px; line-height: 45.6px;&quot;&gt;&lt;font color=&quot;#99ff66&quot; face=&quot;Lucida Console&quot;&gt;free -h&amp;nbsp;&lt;/font&gt;&lt;font color=&quot;#ffffff&quot; face=&quot;Lucida Console&quot;&gt;#human readable memory usage&amp;nbsp;&lt;/font&gt;&lt;/blockquote&gt;&lt;div&gt;&lt;font style=&quot;font-size: 38px;&quot; face=&quot;Lucida Console&quot; color=&quot;#ffffff&quot;&gt;Processes&lt;/font&gt;&lt;blockquote style=&quot;font-size: 38px; line-height: 45.6px;&quot;&gt;&lt;font color=&quot;#99ff66&quot; face=&quot;Lucida Console&quot;&gt;ps -u bob&amp;nbsp;&lt;/font&gt;&lt;font color=&quot;#ffffff&quot; face=&quot;Lucida Console&quot;&gt;#processes running under bob&lt;/font&gt;&lt;br&gt;&lt;/blockquote&gt;&lt;blockquote style=&quot;font-size: 38px; line-height: 45.6px;&quot;&gt;&lt;font color=&quot;#99ff66&quot; face=&quot;Lucida Console&quot;&gt;ps -aux&amp;nbsp;&lt;/font&gt;&lt;font color=&quot;#ffffff&quot; face=&quot;Lucida Console&quot;&gt;#all processes, even without tty, with associated user&lt;/font&gt;&lt;font color=&quot;#ffffff&quot; face=&quot;Lucida Console&quot;&gt;&lt;br&gt;&lt;/font&gt;&lt;/blockquote&gt;&lt;/div&gt;&lt;/div&gt;" style="text;html=1;align=left;verticalAlign=middle;whiteSpace=wrap;rounded=0;" vertex="1" parent="1">
          <mxGeometry x="340" y="2710" width="1170" height="990" as="geometry" />
        </mxCell>
        <mxCell id="XDAFJz9XsZWurZsPIK9s-50" value="&lt;font face=&quot;Lucida Console&quot;&gt;&lt;span style=&quot;font-size: 42px;&quot;&gt;&amp;nbsp;TMUX&lt;/span&gt;&lt;/font&gt;" style="rounded=0;whiteSpace=wrap;html=1;align=left;" vertex="1" parent="1">
          <mxGeometry x="1480" y="2180" width="590" height="80" as="geometry" />
        </mxCell>
        <mxCell id="XDAFJz9XsZWurZsPIK9s-51" value="&lt;span style=&quot;color: rgb(255, 255, 255); font-family: &amp;quot;Lucida Console&amp;quot;; font-size: 38px;&quot;&gt;Commands&lt;/span&gt;&lt;div&gt;&lt;blockquote style=&quot;font-size: 38px; line-height: 45.6px;&quot;&gt;&lt;font color=&quot;#99ff66&quot; face=&quot;Lucida Console&quot;&gt;tmux new -s test&amp;nbsp;&lt;/font&gt;&lt;font color=&quot;#ffffff&quot; face=&quot;Lucida Console&quot;&gt;#create named session test&lt;/font&gt;&lt;font color=&quot;#99ff66&quot; face=&quot;Lucida Console&quot;&gt;&lt;br&gt;&lt;/font&gt;&lt;/blockquote&gt;&lt;blockquote style=&quot;font-size: 38px; line-height: 45.6px;&quot;&gt;&lt;font color=&quot;#99ff66&quot; face=&quot;Lucida Console&quot;&gt;tmux ls&amp;nbsp;&lt;/font&gt;&lt;font color=&quot;#ffffff&quot; face=&quot;Lucida Console&quot;&gt;#list tmux sessions&lt;/font&gt;&lt;font color=&quot;#99ff66&quot; face=&quot;Lucida Console&quot;&gt;&lt;br&gt;&lt;/font&gt;&lt;/blockquote&gt;&lt;blockquote style=&quot;font-size: 38px; line-height: 45.6px;&quot;&gt;&lt;font color=&quot;#99ff66&quot; face=&quot;Lucida Console&quot;&gt;tmux a&amp;nbsp;&lt;/font&gt;&lt;font color=&quot;#ffffff&quot; face=&quot;Lucida Console&quot;&gt;#connect to recent session&amp;nbsp;&lt;/font&gt;&lt;font color=&quot;#ffffff&quot; face=&quot;Lucida Console&quot;&gt;&lt;br&gt;&lt;/font&gt;&lt;/blockquote&gt;&lt;blockquote style=&quot;font-size: 38px; line-height: 45.6px;&quot;&gt;&lt;font color=&quot;#99ff66&quot; face=&quot;Lucida Console&quot;&gt;tmux a -t test&amp;nbsp;&lt;/font&gt;&lt;font color=&quot;#ffffff&quot; face=&quot;Lucida Console&quot;&gt;#connect to named session&amp;nbsp;&lt;/font&gt;&lt;/blockquote&gt;&lt;div&gt;&lt;font face=&quot;Lucida Console&quot; color=&quot;#ffffff&quot;&gt;&lt;span style=&quot;font-size: 38px;&quot;&gt;Hot Keys - Precede with Ctrl + b&lt;/span&gt;&lt;/font&gt;&lt;br&gt;&lt;blockquote style=&quot;font-size: 38px; line-height: 45.6px;&quot;&gt;&lt;font color=&quot;#99ff66&quot; face=&quot;Lucida Console&quot;&gt;%&amp;nbsp;&lt;/font&gt;&lt;font color=&quot;#ffffff&quot; face=&quot;Lucida Console&quot;&gt;#split horizontally&lt;/font&gt;&lt;br&gt;&lt;/blockquote&gt;&lt;blockquote style=&quot;font-size: 38px; line-height: 45.6px;&quot;&gt;&lt;font color=&quot;#99ff66&quot; face=&quot;Lucida Console&quot;&gt;&quot;&amp;nbsp;&lt;/font&gt;&lt;font color=&quot;#ffffff&quot; face=&quot;Lucida Console&quot;&gt;#split vertically&lt;/font&gt;&lt;font color=&quot;#ffffff&quot; face=&quot;Lucida Console&quot;&gt;&lt;br&gt;&lt;/font&gt;&lt;/blockquote&gt;&lt;blockquote style=&quot;font-size: 38px; line-height: 45.6px;&quot;&gt;&lt;font color=&quot;#99ff66&quot; face=&quot;Lucida Console&quot;&gt;w&amp;nbsp;&lt;/font&gt;&lt;font color=&quot;#ffffff&quot; face=&quot;Lucida Console&quot;&gt;#list tmux windows&lt;/font&gt;&lt;font color=&quot;#ffffff&quot; face=&quot;Lucida Console&quot;&gt;&lt;br&gt;&lt;/font&gt;&lt;/blockquote&gt;&lt;blockquote style=&quot;font-size: 38px; line-height: 45.6px;&quot;&gt;&lt;font color=&quot;#99ff66&quot; face=&quot;Lucida Console&quot;&gt;x&amp;nbsp;&lt;/font&gt;&lt;font color=&quot;#ffffff&quot; face=&quot;Lucida Console&quot;&gt;#kill pane&lt;/font&gt;&lt;font color=&quot;#ffffff&quot; face=&quot;Lucida Console&quot;&gt;&lt;br&gt;&lt;/font&gt;&lt;/blockquote&gt;&lt;blockquote style=&quot;font-size: 38px; line-height: 45.6px;&quot;&gt;&lt;font color=&quot;#99ff66&quot; face=&quot;Lucida Console&quot;&gt;,&amp;nbsp;&lt;/font&gt;&lt;font color=&quot;#ffffff&quot; face=&quot;Lucida Console&quot;&gt;#name window&lt;/font&gt;&lt;/blockquote&gt;&lt;blockquote style=&quot;font-size: 38px; line-height: 45.6px;&quot;&gt;&lt;font color=&quot;#99ff66&quot; face=&quot;Lucida Console&quot;&gt;z&amp;nbsp;&lt;/font&gt;&lt;font color=&quot;#ffffff&quot; face=&quot;Lucida Console&quot;&gt;#maximize/minimize pane&lt;/font&gt;&lt;font color=&quot;#ffffff&quot; face=&quot;Lucida Console&quot;&gt;&lt;br&gt;&lt;/font&gt;&lt;/blockquote&gt;&lt;blockquote style=&quot;font-size: 38px; line-height: 45.6px;&quot;&gt;&lt;font color=&quot;#ffffff&quot; face=&quot;Lucida Console&quot;&gt;&lt;br&gt;&lt;/font&gt;&lt;/blockquote&gt;&lt;/div&gt;&lt;/div&gt;" style="text;html=1;align=left;verticalAlign=middle;whiteSpace=wrap;rounded=0;" vertex="1" parent="1">
          <mxGeometry x="1480" y="2350" width="1170" height="990" as="geometry" />
        </mxCell>
        <mxCell id="XDAFJz9XsZWurZsPIK9s-52" value="&lt;font face=&quot;Lucida Console&quot;&gt;&lt;span style=&quot;font-size: 42px;&quot;&gt;&amp;nbsp;NANO (sorry i&#39;m not l33t)&lt;/span&gt;&lt;/font&gt;" style="rounded=0;whiteSpace=wrap;html=1;align=left;" vertex="1" parent="1">
          <mxGeometry x="1480" y="3330" width="690" height="80" as="geometry" />
        </mxCell>
        <mxCell id="XDAFJz9XsZWurZsPIK9s-53" value="&lt;span style=&quot;color: rgb(255, 255, 255); font-family: &amp;quot;Lucida Console&amp;quot;; font-size: 38px;&quot;&gt;Shortcuts&lt;/span&gt;&lt;div&gt;&lt;blockquote style=&quot;font-size: 38px; line-height: 45.6px;&quot;&gt;&lt;font color=&quot;#99ff66&quot; face=&quot;Lucida Console&quot;&gt;Ctrl + w, Alt + w&amp;nbsp;&lt;/font&gt;&lt;font color=&quot;#ffffff&quot; face=&quot;Lucida Console&quot;&gt;#search for string, next&lt;/font&gt;&lt;font color=&quot;#99ff66&quot; face=&quot;Lucida Console&quot;&gt;&lt;br&gt;&lt;/font&gt;&lt;/blockquote&gt;&lt;blockquote style=&quot;font-size: 38px; line-height: 45.6px;&quot;&gt;&lt;font color=&quot;#99ff66&quot; face=&quot;Lucida Console&quot;&gt;Ctrl + \&amp;nbsp;&lt;/font&gt;&lt;font color=&quot;#ffffff&quot; face=&quot;Lucida Console&quot;&gt;#search + replace&lt;/font&gt;&lt;font color=&quot;#99ff66&quot; face=&quot;Lucida Console&quot;&gt;&lt;br&gt;&lt;/font&gt;&lt;/blockquote&gt;&lt;blockquote style=&quot;font-size: 38px; line-height: 45.6px;&quot;&gt;&lt;font color=&quot;#99ff66&quot; face=&quot;Lucida Console&quot;&gt;Ctrl + _&amp;nbsp;&lt;/font&gt;&lt;font color=&quot;#ffffff&quot; face=&quot;Lucida Console&quot;&gt;#go to line, column number&lt;/font&gt;&lt;font color=&quot;#ffffff&quot; face=&quot;Lucida Console&quot;&gt;&lt;br&gt;&lt;/font&gt;&lt;/blockquote&gt;&lt;blockquote style=&quot;font-size: 38px; line-height: 45.6px;&quot;&gt;&lt;font color=&quot;#99ff66&quot; face=&quot;Lucida Console&quot;&gt;Ctrl + w&amp;nbsp;&lt;/font&gt;&lt;font color=&quot;#ffffff&quot; face=&quot;Lucida Console&quot;&gt;#search for string&lt;/font&gt;&lt;font color=&quot;#ffffff&quot; face=&quot;Lucida Console&quot;&gt;&lt;br&gt;&lt;/font&gt;&lt;/blockquote&gt;&lt;blockquote style=&quot;font-size: 38px; line-height: 45.6px;&quot;&gt;&lt;br&gt;&lt;/blockquote&gt;&lt;div&gt;&lt;blockquote style=&quot;font-size: 38px; line-height: 45.6px;&quot;&gt;&lt;font color=&quot;#ffffff&quot; face=&quot;Lucida Console&quot;&gt;&lt;br&gt;&lt;/font&gt;&lt;/blockquote&gt;&lt;/div&gt;&lt;/div&gt;" style="text;html=1;align=left;verticalAlign=middle;whiteSpace=wrap;rounded=0;" vertex="1" parent="1">
          <mxGeometry x="1480" y="3530" width="1130" height="450" as="geometry" />
        </mxCell>
        <mxCell id="XDAFJz9XsZWurZsPIK9s-48" value="&lt;font face=&quot;Lucida Console&quot; style=&quot;font-size: 42px;&quot;&gt;&amp;nbsp;SYSTEM &#39;TINGS&lt;/font&gt;" style="rounded=0;whiteSpace=wrap;html=1;align=left;" vertex="1" parent="1">
          <mxGeometry x="330" y="2720" width="590" height="80" as="geometry" />
        </mxCell>
        <mxCell id="XDAFJz9XsZWurZsPIK9s-54" value="&lt;div style=&quot;line-height: 120%;&quot;&gt;&lt;font color=&quot;#ffffff&quot; style=&quot;font-size: 38px;&quot; face=&quot;Lucida Console&quot;&gt;Term1n8&lt;/font&gt;&lt;/div&gt;" style="text;html=1;align=left;verticalAlign=middle;whiteSpace=wrap;rounded=0;" vertex="1" parent="1">
          <mxGeometry x="2130" y="670" width="165" height="60" as="geometry" />
        </mxCell>
      </root>
    </mxGraphModel>
  </diagram>
</mxfile>
